<?xml version="1.0" encoding="UTF-8"?>
<svg id="Layer_1" data-name="Layer 1" xmlns="http://www.w3.org/2000/svg" viewBox="0 0 209.44 229.95">
  <defs>
    <style>
      .cls-1 {
        fill: #1e90ff;
      }
    </style>
  </defs>
  <path class="cls-1" d="M41.77,106.08c15.49-2.44,19.28,6.28,31.28,12.24,21.52,10.69,44.53,9.85,65.65-1.31,11.39-6.02,13.66-12.97,28.57-10.91,35.51,4.91,44.22,60.71,41.8,89.28-.2,2.31-2.22,9.8-6.92,18.93-15.52,30.16-49.36,50.5-83.11,54.58-40.93,4.95-88.3-13.21-108.42-50.63C-.56,197.47.04,177.16,1.04,168.35c2.69-23.65,13.34-57.95,40.73-62.27Z"/>
  <path class="cls-1" d="M100.82.14c75.12-4.73,81.56,107.83,9.69,113.68C32.82,120.15,26.46,4.82,100.82.14Z"/>
</svg>